<?xml version="1.0" encoding="UTF-8"?>
<svg width="100" height="100" version="1.1" viewBox="0 0 26.458 26.458" xmlns="http://www.w3.org/2000/svg">
 <path transform="translate(.035562 .040835)" d="m21.131 25.522-7.9808-5.2704-8.0267 5.2003 2.5462-9.2189-7.4261-6.0269 9.5545-0.42718 3.4371-8.9251 3.3588 8.9548 9.5504 0.51088-7.4787 5.9616z" display="none" fill="#ccc" stroke-width="0" style="paint-order:stroke fill markers"/>
 <ellipse cx="13.265" cy="15.353" rx="2.3183" ry="1.8503" display="none" stroke="#000" stroke-linecap="round" stroke-linejoin="bevel" stroke-width=".50715" style="paint-order:stroke fill markers"/>
 <g fill="none" stroke="#000" stroke-linecap="round" stroke-linejoin="bevel" stroke-width=".5">
  <path d="m11.565 15.38c1.8916 1.5871 3.1364-0.06147 3.1364-0.06147" display="none" style="paint-order:stroke fill markers"/>
  <path d="m11.575 16.195c1.8564 0.04318 3.1369 0.01814 3.1369 0.01814" display="none" style="paint-order:stroke fill markers"/>
  <path d="m11.601 16.077c1.8916-1.5871 3.1364 0.06147 3.1364 0.06147" style="paint-order:stroke fill markers"/>
 </g>
 <g stroke-width="0">
  <rect x="10.655" y="12.995" width="5.3637" height="2.2319" display="none" fill="#ccc" style="paint-order:stroke fill markers"/>
  <ellipse cx="10.457" cy="12.815" rx=".77395" ry=".79195" style="paint-order:stroke fill markers"/>
  <ellipse cx="15.821" cy="12.779" rx=".77395" ry=".79195" style="paint-order:stroke fill markers"/>
 </g>
 <path d="m9.2386 13.267c1.4969-2.4364 2.4053 0.05572 2.4053 0.05572" display="none" fill="none" stroke="#000" stroke-linecap="round" stroke-linejoin="bevel" stroke-width=".5" style="paint-order:stroke fill markers"/>
 <path d="m14.602 13.231c1.4969-2.4364 2.4053 0.05572 2.4053 0.05572" display="none" fill="none" stroke="#000" stroke-linecap="round" stroke-linejoin="bevel" stroke-width=".5" style="paint-order:stroke fill markers"/>
</svg>
